<svg width="24" height="24" viewBox="0 0 24 24" fill="none" xmlns="http://www.w3.org/2000/svg">
<path d="M20.6504 9.37495L19.2504 7.97495L20.0004 7.19995L16.8004 3.99995L16.0254 4.74995L14.6004 3.32495L15.3504 2.54995C15.7337 2.16662 16.2087 1.97912 16.7754 1.98745C17.3421 1.99578 17.8171 2.19162 18.2004 2.57495L21.4254 5.79995C21.8087 6.18328 22.0004 6.65412 22.0004 7.21245C22.0004 7.77078 21.8087 8.24162 21.4254 8.62495L20.6504 9.37495ZM8.65039 21.3999C8.26706 21.7833 7.79622 21.9749 7.23789 21.9749C6.67956 21.9749 6.20872 21.7833 5.82539 21.3999L2.60039 18.1749C2.21706 17.7916 2.02539 17.3208 2.02539 16.7624C2.02539 16.2041 2.21706 15.7333 2.60039 15.3499L3.35039 14.5999L4.77539 16.0249L4.00039 16.7749L7.22539 19.9999L7.97539 19.2249L9.40039 20.6499L8.65039 21.3999ZM18.5754 12.9999L20.0004 11.5749L12.4254 3.99995L11.0004 5.42495L18.5754 12.9999ZM11.5754 19.9999L13.0004 18.5499L5.45039 10.9999L4.00039 12.4249L11.5754 19.9999ZM11.4254 14.1499L14.1754 11.4249L12.5754 9.82495L9.85039 12.5749L11.4254 14.1499ZM13.0004 21.3999C12.6171 21.7833 12.1421 21.9749 11.5754 21.9749C11.0087 21.9749 10.5337 21.7833 10.1504 21.3999L2.60039 13.8499C2.21706 13.4666 2.02539 12.9916 2.02539 12.4249C2.02539 11.8583 2.21706 11.3833 2.60039 10.9999L4.02539 9.57495C4.40872 9.19162 4.87956 8.99995 5.43789 8.99995C5.99622 8.99995 6.46706 9.19162 6.85039 9.57495L8.42539 11.1499L11.1754 8.39995L9.60039 6.84995C9.21706 6.46662 9.02539 5.99162 9.02539 5.42495C9.02539 4.85828 9.21706 4.38328 9.60039 3.99995L11.0254 2.57495C11.4087 2.19162 11.8796 1.99995 12.4379 1.99995C12.9962 1.99995 13.4671 2.19162 13.8504 2.57495L21.4254 10.1499C21.8087 10.5333 22.0004 11.0041 22.0004 11.5624C22.0004 12.1208 21.8087 12.5916 21.4254 12.9749L20.0004 14.3999C19.6171 14.7833 19.1421 14.9749 18.5754 14.9749C18.0087 14.9749 17.5337 14.7833 17.1504 14.3999L15.6004 12.8249L12.8504 15.5749L14.4254 17.1499C14.8087 17.5333 15.0004 18.0041 15.0004 18.5624C15.0004 19.1208 14.8087 19.5916 14.4254 19.9749L13.0004 21.3999Z" fill="#84349E"/>
</svg>
