<svg width="16" height="15" viewBox="0 0 16 15" fill="none" xmlns="http://www.w3.org/2000/svg">
<path d="M7.99598 13.1948L9.66397 12.1888C10.8583 11.4491 11.9776 10.5946 13.006 9.6375C14.6981 8.04999 16.012 6.34578 15.9999 3.96754C15.995 2.9859 15.6315 2.0399 14.9778 1.30761L14.9637 1.29151C14.6251 0.893748 14.205 0.573311 13.7319 0.351853C13.2588 0.130394 12.7436 0.0130734 12.2213 0.00781957C10.6116 -0.0786986 9.002 0.543025 7.99598 2.3579C6.98995 0.54705 5.38031 -0.0786986 3.77067 0.00781957C3.24968 0.0142198 2.73609 0.132093 2.26445 0.353512C1.7928 0.574931 1.37403 0.894765 1.03629 1.29151L1.02221 1.30761C0.368468 2.0399 0.00495122 2.9859 8.25257e-05 3.96754C-0.0119898 6.34578 1.30188 8.04999 2.99402 9.6375C4.02281 10.5911 5.14211 11.4422 6.33603 12.1787L7.99598 13.1948Z" fill="#AC5AC6"/>
<path d="M15.2816 6.84269H11.5433L10.3199 3.10027C10.3031 3.04821 10.2704 3.00273 10.2263 2.97024C10.1823 2.93776 10.1292 2.9199 10.0744 2.91919C10.0202 2.91935 9.96732 2.93625 9.92303 2.96758C9.87874 2.99891 9.84519 3.04314 9.82697 3.09424L7.90747 8.58714L6.21131 4.46042C6.19238 4.41316 6.15997 4.37252 6.11811 4.34354C6.07626 4.31456 6.0268 4.29853 5.9759 4.29745C5.92507 4.2987 5.87555 4.31379 5.83265 4.34108C5.78975 4.36838 5.75511 4.40686 5.73245 4.45237L4.72642 6.68173H0.629883C0.718413 6.8608 0.817004 7.03383 0.919619 7.20486H4.89342C4.94377 7.2049 4.99307 7.19052 5.0355 7.16342C5.07793 7.13632 5.11172 7.09764 5.13285 7.05194L5.95981 5.21896L7.68212 9.4161C7.70176 9.46393 7.73523 9.5048 7.77825 9.53348C7.82127 9.56216 7.87187 9.57734 7.92357 9.57707C7.97658 9.57584 8.02795 9.55841 8.07075 9.52711C8.11356 9.49582 8.14575 9.45216 8.163 9.40202L10.0563 3.99161L11.0966 7.1787C11.1142 7.23109 11.1476 7.27669 11.1924 7.30915C11.2371 7.34161 11.2908 7.35931 11.3461 7.35979H14.9678C15.0865 7.1948 15.1871 7.01975 15.2816 6.84269Z" fill="white"/>
<path d="M10.2236 11.5229C11.0083 11.8328 11.2075 13.3156 10.5456 14.1506C11.9399 13.547 12.5878 11.6718 11.9419 10.2493L10.2236 11.5229Z" fill="#AC5AC6"/>
</svg>
