<svg width="24" height="24" viewBox="0 0 24 24" fill="none" xmlns="http://www.w3.org/2000/svg">
<path d="M11.9365 7.06879C8.97358 7.06879 6.51855 9.48148 6.51855 12.4868C6.51855 15.4921 8.93125 17.9048 11.9365 17.9048C14.9418 17.9048 17.3545 15.4497 17.3545 12.4868C17.3545 9.52381 14.8995 7.06879 11.9365 7.06879ZM11.9365 15.9577C10.0318 15.9577 8.46564 14.3915 8.46564 12.4868C8.46564 10.582 10.0318 9.01588 11.9365 9.01588C13.8413 9.01588 15.4074 10.582 15.4074 12.4868C15.4074 14.3915 13.8413 15.9577 11.9365 15.9577Z" fill="#84349E"/>
<path d="M17.5664 8.16932C18.2443 8.16932 18.7939 7.61974 18.7939 6.94181C18.7939 6.26387 18.2443 5.71429 17.5664 5.71429C16.8884 5.71429 16.3389 6.26387 16.3389 6.94181C16.3389 7.61974 16.8884 8.16932 17.5664 8.16932Z" fill="#84349E"/>
<path d="M20.741 3.76719C19.6405 2.62433 18.0744 2.03174 16.2966 2.03174H7.57702C3.89448 2.03174 1.43945 4.48676 1.43945 8.1693V16.8466C1.43945 18.6667 2.03205 20.2328 3.21723 21.3757C4.36009 22.4762 5.8839 23.0264 7.61935 23.0264H16.2543C18.0744 23.0264 19.5982 22.4339 20.6987 21.3757C21.8416 20.2751 22.4342 18.709 22.4342 16.8889V8.1693C22.4342 6.39153 21.8416 4.86772 20.741 3.76719ZM20.5717 16.8889C20.5717 18.2011 20.1061 19.2593 19.3442 19.9788C18.5823 20.6984 17.5241 21.0794 16.2543 21.0794H7.61935C6.34951 21.0794 5.29131 20.6984 4.5294 19.9788C3.7675 19.2169 3.38654 18.1587 3.38654 16.8466V8.1693C3.38654 6.89946 3.7675 5.84126 4.5294 5.07936C5.24898 4.35978 6.34951 3.97883 7.61935 3.97883H16.3389C17.6088 3.97883 18.667 4.35978 19.4289 5.12169C20.1484 5.88359 20.5717 6.94179 20.5717 8.1693V16.8889Z" fill="#84349E"/>
</svg>
