<svg width="256" height="41" viewBox="0 0 256 41" fill="none" xmlns="http://www.w3.org/2000/svg">
<path d="M14.432 40.16C11.52 40.16 8.976 39.648 6.8 38.624C4.656 37.632 2.992 36.176 1.808 34.256C0.624 32.304 0.0320003 29.968 0.0320003 27.248C0.0320003 24.688 0.512 22.336 1.472 20.192C2.464 18.048 3.888 16.064 5.744 14.24C8.56 11.52 11.84 9.424 15.584 7.952C19.36 6.48 23.248 5.744 27.248 5.744C29.232 5.744 30.976 6.096 32.48 6.8C33.984 7.472 35.168 8.384 36.032 9.536C36.896 10.688 37.328 11.952 37.328 13.328C37.328 14.224 37.12 15.056 36.704 15.824C36.288 16.56 35.824 17.152 35.312 17.6C34.8 18.048 34.384 18.272 34.064 18.272C33.808 18.272 33.552 18.16 33.296 17.936C33.04 17.68 32.912 17.472 32.912 17.312C32.912 17.12 33.136 16.848 33.584 16.496C34.032 16.144 34.464 15.68 34.88 15.104C35.328 14.496 35.552 13.76 35.552 12.896C35.552 11.744 35.152 10.736 34.352 9.872C33.584 8.976 32.496 8.288 31.088 7.808C29.712 7.296 28.128 7.04 26.336 7.04C22.784 7.04 19.328 7.792 15.968 9.296C12.608 10.768 9.664 12.752 7.136 15.248C5.376 17.008 4.048 18.864 3.152 20.816C2.256 22.768 1.808 25.024 1.808 27.584C1.808 30.048 2.384 32.112 3.536 33.776C4.72 35.408 6.304 36.64 8.288 37.472C10.272 38.272 12.496 38.672 14.96 38.672C17.776 38.672 20.768 38.224 23.936 37.328C25.792 36.816 27.36 36.24 28.64 35.6C29.92 34.928 30.88 34.304 31.52 33.728C32.128 33.184 32.576 32.784 32.864 32.528C33.152 32.272 33.392 32.144 33.584 32.144C33.808 32.144 33.92 32.288 33.92 32.576C33.92 32.896 33.728 33.296 33.344 33.776C32.992 34.256 32.592 34.672 32.144 35.024C31.024 35.888 29.6 36.672 27.872 37.376C26.176 38.048 24.48 38.608 22.784 39.056C21.28 39.44 19.84 39.712 18.464 39.872C17.088 40.064 15.744 40.16 14.432 40.16ZM38.9596 38.48C37.1036 38.48 36.1756 37.6 36.1756 35.84C36.1756 34.688 36.4476 33.456 36.9916 32.144C37.5676 30.8 38.3356 29.504 39.2956 28.256C40.2556 26.976 41.3276 25.824 42.5116 24.8C43.6956 23.744 44.9116 22.912 46.1596 22.304C47.4076 21.664 48.6076 21.344 49.7596 21.344C51.8076 21.344 52.8316 22.352 52.8316 24.368C52.8316 25.68 52.5116 26.336 51.8716 26.336C51.2956 26.336 51.0076 26.064 51.0076 25.52C51.0076 25.296 51.0556 25.072 51.1516 24.848C51.2796 24.592 51.3436 24.32 51.3436 24.032C51.3436 23.136 50.7356 22.688 49.5196 22.688C47.5676 22.688 45.1196 24.176 42.1756 27.152C41.4716 27.888 40.7836 28.752 40.1116 29.744C39.4396 30.736 38.8796 31.744 38.4316 32.768C38.0156 33.76 37.8076 34.704 37.8076 35.6C37.8076 36.464 38.2876 36.896 39.2476 36.896C40.0796 36.896 40.9596 36.64 41.8876 36.128C42.8476 35.616 43.6796 35.088 44.3836 34.544C45.7916 33.488 47.2316 32.048 48.7036 30.224C48.9276 29.968 49.2156 29.632 49.5676 29.216C49.9196 28.8 50.3196 28.336 50.7676 27.824C50.9276 27.664 51.1196 27.584 51.3436 27.584C51.8556 27.584 52.1116 27.84 52.1116 28.352L50.2876 31.088C49.0716 32.88 48.4636 34.352 48.4636 35.504C48.4636 36.336 48.8636 36.752 49.6636 36.752C50.3356 36.752 51.0716 36.576 51.8716 36.224C52.6716 35.872 53.3276 35.52 53.8396 35.168C54.8636 34.496 55.9356 33.664 57.0556 32.672C58.1756 31.648 59.2476 30.624 60.2716 29.6C60.3996 29.472 60.5916 29.408 60.8476 29.408C61.3276 29.408 61.5676 29.6 61.5676 29.984C61.5676 30.336 61.3436 30.736 60.8956 31.184C59.6156 32.464 58.4636 33.568 57.4396 34.496C56.4156 35.392 55.4396 36.128 54.5116 36.704C53.9036 37.056 53.1516 37.424 52.2556 37.808C51.3596 38.192 50.3356 38.384 49.1836 38.384C47.6156 38.384 46.8316 37.552 46.8316 35.888C46.8316 35.248 46.9116 34.72 47.0716 34.304C44.1596 37.088 41.4556 38.48 38.9596 38.48ZM57.0605 39.632C56.5165 39.632 56.2445 39.376 56.2445 38.864C56.2445 38.832 56.4365 38.432 56.8205 37.664C57.2045 36.896 57.7485 35.76 58.4525 34.256L60.9005 29.12C61.8925 27.04 62.5965 25.392 63.0125 24.176C63.4605 22.96 63.6845 22.176 63.6845 21.824C63.6845 21.312 63.9405 21.056 64.4525 21.056C64.9645 21.056 65.2205 21.312 65.2205 21.824C65.2205 22.24 65.0765 22.896 64.7885 23.792C64.5325 24.656 64.1005 25.776 63.4925 27.152L61.0445 32.72C67.7325 24.272 72.7725 20.048 76.1645 20.048C76.8045 20.048 77.3005 20.32 77.6525 20.864C78.0045 21.376 78.1805 21.952 78.1805 22.592C78.1805 24.128 77.0765 26.8 74.8685 30.608C76.5645 28.88 78.2765 27.152 80.0045 25.424C81.7645 23.664 83.5245 21.936 85.2845 20.24C85.7325 19.824 86.1005 19.616 86.3885 19.616C86.7725 19.616 87.0925 19.808 87.3485 20.192C87.6045 20.544 87.7325 20.928 87.7325 21.344C87.7325 21.664 87.5885 22.064 87.3005 22.544C86.8845 23.248 86.5005 24.096 86.1485 25.088C85.7965 26.048 85.3965 27.136 84.9485 28.352C84.4365 29.728 84.0685 30.928 83.8445 31.952C83.6205 32.976 83.5085 33.808 83.5085 34.448C83.5085 35.248 83.7005 35.84 84.0845 36.224C84.4685 36.576 84.8525 36.752 85.2365 36.752C85.9085 36.752 86.6445 36.576 87.4445 36.224C88.2445 35.872 88.9005 35.52 89.4125 35.168C90.4365 34.496 91.5085 33.664 92.6285 32.672C93.7485 31.648 94.8205 30.624 95.8445 29.6C95.9725 29.472 96.1645 29.408 96.4205 29.408C96.9005 29.408 97.1405 29.6 97.1405 29.984C97.1405 30.336 96.9165 30.736 96.4685 31.184C95.1885 32.464 94.0365 33.568 93.0125 34.496C91.9885 35.392 91.0125 36.128 90.0845 36.704C89.4765 37.056 88.7405 37.424 87.8765 37.808C87.0125 38.192 86.0845 38.384 85.0925 38.384C84.1645 38.384 83.3805 38.096 82.7405 37.52C82.1325 36.944 81.8285 35.712 81.8285 33.824C81.8285 33.088 81.9565 32.224 82.2125 31.232C82.4685 30.208 82.8525 29.072 83.3645 27.824L85.9085 21.776L79.0445 28.688C78.2445 29.488 77.5885 30.16 77.0765 30.704C76.5645 31.248 76.1485 31.696 75.8285 32.048C75.2205 32.688 74.6765 33.312 74.1965 33.92C73.7485 34.528 73.3645 35.056 73.0445 35.504C72.8205 35.856 72.5645 36.032 72.2765 36.032C71.7325 36.032 71.4605 35.808 71.4605 35.36C71.4605 34.368 72.3565 32.08 74.1485 28.496C75.9405 24.912 76.8365 22.768 76.8365 22.064C76.8365 21.744 76.4845 21.584 75.7805 21.584C72.9325 21.584 67.8605 26.24 60.5645 35.552C59.9565 36.416 58.9485 37.712 57.5405 39.44C57.4445 39.568 57.2845 39.632 57.0605 39.632ZM104.591 19.088C104.047 19.088 103.775 18.816 103.775 18.272C103.775 18.112 103.887 17.824 104.111 17.408C104.335 16.96 104.591 16.512 104.879 16.064C105.167 15.616 105.391 15.312 105.551 15.152C106.095 14.544 106.511 14.16 106.799 14C107.119 13.84 107.407 13.76 107.663 13.76C108.335 13.76 108.671 14.064 108.671 14.672C108.671 14.896 108.527 15.168 108.239 15.488C107.983 15.776 107.679 16.048 107.327 16.304C106.815 16.624 106.495 16.88 106.367 17.072L105.311 18.56C105.279 18.688 105.199 18.816 105.071 18.944C104.975 19.04 104.815 19.088 104.591 19.088ZM96.4306 38.528C95.5346 38.528 94.8786 38.352 94.4626 38C94.0786 37.648 93.8866 37.12 93.8866 36.416C93.8866 35.744 94.0946 34.832 94.5106 33.68C94.9266 32.496 95.4546 31.232 96.0946 29.888C96.7666 28.544 97.4706 27.264 98.2066 26.048C98.9426 24.832 99.6466 23.84 100.319 23.072C101.023 22.272 101.583 21.872 101.999 21.872C102.575 21.872 102.863 22.128 102.863 22.64C102.863 22.96 102.591 23.568 102.047 24.464C101.503 25.36 100.911 26.288 100.271 27.248C100.015 27.6 99.6626 28.08 99.2146 28.688C98.7666 29.296 98.3346 29.872 97.9186 30.416C97.5026 30.928 97.2306 31.28 97.1026 31.472C96.7826 31.952 96.4466 32.736 96.0946 33.824C95.7106 34.912 95.5186 35.744 95.5186 36.32C95.5186 36.576 95.5666 36.768 95.6626 36.896C95.7906 37.024 96.0626 37.088 96.4786 37.088C97.2786 37.088 98.1746 36.832 99.1666 36.32C100.159 35.808 101.167 35.168 102.191 34.4C103.215 33.6 104.175 32.784 105.071 31.952C105.999 31.12 106.783 30.4 107.423 29.792C107.551 29.664 107.743 29.6 107.999 29.6C108.479 29.6 108.719 29.792 108.719 30.176C108.719 30.528 108.495 30.928 108.047 31.376C107.183 32.24 106.383 33.008 105.647 33.68C104.911 34.352 104.207 34.944 103.535 35.456C102.479 36.224 101.311 36.928 100.031 37.568C98.7506 38.208 97.5506 38.528 96.4306 38.528ZM111.221 39.296C109.749 39.296 108.613 38.848 107.813 37.952C107.045 37.024 106.661 35.808 106.661 34.304C106.661 33.216 106.853 31.904 107.237 30.368C107.909 27.776 109.045 24.768 110.645 21.344C111.893 18.752 113.237 16.208 114.677 13.712C116.117 11.184 117.701 8.704 119.429 6.272C122.181 2.368 124.101 0.415998 125.189 0.415998C125.893 0.415998 126.245 0.607998 126.245 0.991999C126.245 1.536 125.349 2.896 123.557 5.072L120.197 9.152C117.285 12.672 114.901 16.272 113.045 19.952C111.221 23.632 109.797 27.312 108.773 30.992C108.485 32.048 108.341 33.04 108.341 33.968C108.341 36.4 109.333 37.616 111.317 37.616C112.021 37.616 112.741 37.408 113.477 36.992C114.213 36.608 114.613 36.416 114.677 36.416C115.061 36.416 115.253 36.688 115.253 37.232C115.253 37.712 115.077 38.08 114.725 38.336C113.637 38.976 112.469 39.296 111.221 39.296ZM120.194 38.48C118.338 38.48 117.41 37.6 117.41 35.84C117.41 34.688 117.682 33.456 118.226 32.144C118.802 30.8 119.57 29.504 120.53 28.256C121.49 26.976 122.562 25.824 123.746 24.8C124.93 23.744 126.146 22.912 127.394 22.304C128.642 21.664 129.842 21.344 130.994 21.344C133.042 21.344 134.066 22.352 134.066 24.368C134.066 25.68 133.746 26.336 133.106 26.336C132.53 26.336 132.242 26.064 132.242 25.52C132.242 25.296 132.29 25.072 132.386 24.848C132.514 24.592 132.578 24.32 132.578 24.032C132.578 23.136 131.97 22.688 130.754 22.688C128.802 22.688 126.354 24.176 123.41 27.152C122.706 27.888 122.018 28.752 121.346 29.744C120.674 30.736 120.114 31.744 119.666 32.768C119.25 33.76 119.042 34.704 119.042 35.6C119.042 36.464 119.522 36.896 120.482 36.896C121.314 36.896 122.194 36.64 123.122 36.128C124.082 35.616 124.914 35.088 125.618 34.544C127.026 33.488 128.466 32.048 129.938 30.224C130.162 29.968 130.45 29.632 130.802 29.216C131.154 28.8 131.554 28.336 132.002 27.824C132.162 27.664 132.354 27.584 132.578 27.584C133.09 27.584 133.346 27.84 133.346 28.352L131.522 31.088C130.306 32.88 129.698 34.352 129.698 35.504C129.698 36.336 130.098 36.752 130.898 36.752C131.57 36.752 132.306 36.576 133.106 36.224C133.906 35.872 134.562 35.52 135.074 35.168C136.098 34.496 137.17 33.664 138.29 32.672C139.41 31.648 140.482 30.624 141.506 29.6C141.634 29.472 141.826 29.408 142.082 29.408C142.562 29.408 142.802 29.6 142.802 29.984C142.802 30.336 142.578 30.736 142.13 31.184C140.85 32.464 139.698 33.568 138.674 34.496C137.65 35.392 136.674 36.128 135.746 36.704C135.138 37.056 134.386 37.424 133.49 37.808C132.594 38.192 131.57 38.384 130.418 38.384C128.85 38.384 128.066 37.552 128.066 35.888C128.066 35.248 128.146 34.72 128.306 34.304C125.394 37.088 122.69 38.48 120.194 38.48ZM151.792 40.064C151.568 40.064 151.312 39.952 151.024 39.728C150.736 39.504 150.591 39.264 150.591 39.008C150.591 38.72 150.912 37.984 151.552 36.8C152.192 35.616 153.216 33.84 154.624 31.472C156.032 29.104 157.872 26.032 160.144 22.256L166.432 11.744C166.784 11.104 167.216 10.352 167.728 9.488C168.24 8.624 168.864 7.6 169.6 6.416C169.792 6.128 170 5.984 170.224 5.984C170.448 5.984 170.672 6.096 170.896 6.32C171.12 6.512 171.232 6.72 171.232 6.944C171.232 7.072 170.432 8.496 168.832 11.216C167.232 13.904 164.816 17.92 161.584 23.264C160.368 25.28 159.04 27.504 157.6 29.936C156.192 32.368 154.688 35.008 153.088 37.856C162.368 35.36 169.504 34.112 174.496 34.112C176 34.112 177.248 34.368 178.24 34.88C179.264 35.36 179.776 35.84 179.776 36.32C179.776 36.864 179.504 37.136 178.96 37.136C178.512 37.136 178.288 36.896 178.288 36.416V36.272C177.968 36.112 177.424 35.984 176.656 35.888C175.888 35.792 175.008 35.744 174.016 35.744C172.8 35.744 171.424 35.856 169.888 36.08C168.352 36.272 166.784 36.528 165.184 36.848C163.616 37.136 162.144 37.44 160.768 37.76C159.424 38.048 158.144 38.352 156.928 38.672C155.744 39.024 154.64 39.328 153.616 39.584C153.008 39.712 152.56 39.824 152.271 39.92C152.016 40.016 151.856 40.064 151.792 40.064ZM193.653 19.088C193.109 19.088 192.837 18.816 192.837 18.272C192.837 18.112 192.949 17.824 193.173 17.408C193.397 16.96 193.653 16.512 193.941 16.064C194.229 15.616 194.453 15.312 194.613 15.152C195.157 14.544 195.573 14.16 195.861 14C196.181 13.84 196.469 13.76 196.725 13.76C197.397 13.76 197.733 14.064 197.733 14.672C197.733 14.896 197.589 15.168 197.301 15.488C197.045 15.776 196.741 16.048 196.389 16.304C195.877 16.624 195.557 16.88 195.429 17.072L194.373 18.56C194.341 18.688 194.261 18.816 194.133 18.944C194.037 19.04 193.877 19.088 193.653 19.088ZM185.493 38.528C184.597 38.528 183.941 38.352 183.525 38C183.141 37.648 182.949 37.12 182.949 36.416C182.949 35.744 183.157 34.832 183.573 33.68C183.989 32.496 184.517 31.232 185.157 29.888C185.829 28.544 186.533 27.264 187.269 26.048C188.005 24.832 188.709 23.84 189.381 23.072C190.085 22.272 190.645 21.872 191.061 21.872C191.637 21.872 191.925 22.128 191.925 22.64C191.925 22.96 191.653 23.568 191.109 24.464C190.565 25.36 189.973 26.288 189.333 27.248C189.077 27.6 188.725 28.08 188.277 28.688C187.829 29.296 187.397 29.872 186.981 30.416C186.565 30.928 186.293 31.28 186.165 31.472C185.845 31.952 185.509 32.736 185.157 33.824C184.773 34.912 184.581 35.744 184.581 36.32C184.581 36.576 184.629 36.768 184.725 36.896C184.853 37.024 185.125 37.088 185.541 37.088C186.341 37.088 187.237 36.832 188.229 36.32C189.221 35.808 190.229 35.168 191.253 34.4C192.277 33.6 193.237 32.784 194.133 31.952C195.061 31.12 195.845 30.4 196.485 29.792C196.613 29.664 196.805 29.6 197.061 29.6C197.541 29.6 197.781 29.792 197.781 30.176C197.781 30.528 197.557 30.928 197.109 31.376C196.245 32.24 195.445 33.008 194.709 33.68C193.973 34.352 193.269 34.944 192.597 35.456C191.541 36.224 190.373 36.928 189.093 37.568C187.813 38.208 186.613 38.528 185.493 38.528ZM193.42 39.632C192.876 39.632 192.604 39.376 192.604 38.864C192.604 38.832 192.796 38.432 193.18 37.664C193.564 36.896 194.108 35.76 194.812 34.256L197.26 29.12C198.252 27.04 198.956 25.392 199.372 24.176C199.82 22.96 200.044 22.176 200.044 21.824C200.044 21.312 200.3 21.056 200.812 21.056C201.324 21.056 201.58 21.312 201.58 21.824C201.58 22.24 201.436 22.896 201.148 23.792C200.892 24.656 200.46 25.776 199.852 27.152L197.404 32.72C204.092 24.272 209.132 20.048 212.524 20.048C213.164 20.048 213.66 20.32 214.012 20.864C214.364 21.376 214.54 21.952 214.54 22.592C214.54 24.128 213.436 26.8 211.228 30.608C212.924 28.88 214.636 27.152 216.364 25.424C218.124 23.664 219.884 21.936 221.644 20.24C222.092 19.824 222.46 19.616 222.748 19.616C223.132 19.616 223.452 19.808 223.708 20.192C223.964 20.544 224.092 20.928 224.092 21.344C224.092 21.664 223.948 22.064 223.66 22.544C223.244 23.248 222.86 24.096 222.508 25.088C222.156 26.048 221.756 27.136 221.308 28.352C220.796 29.728 220.428 30.928 220.204 31.952C219.98 32.976 219.868 33.808 219.868 34.448C219.868 35.248 220.06 35.84 220.444 36.224C220.828 36.576 221.212 36.752 221.596 36.752C222.268 36.752 223.004 36.576 223.804 36.224C224.604 35.872 225.26 35.52 225.772 35.168C226.796 34.496 227.868 33.664 228.988 32.672C230.108 31.648 231.18 30.624 232.204 29.6C232.332 29.472 232.524 29.408 232.78 29.408C233.26 29.408 233.5 29.6 233.5 29.984C233.5 30.336 233.276 30.736 232.828 31.184C231.548 32.464 230.396 33.568 229.372 34.496C228.348 35.392 227.372 36.128 226.444 36.704C225.836 37.056 225.1 37.424 224.236 37.808C223.372 38.192 222.444 38.384 221.452 38.384C220.524 38.384 219.74 38.096 219.1 37.52C218.492 36.944 218.188 35.712 218.188 33.824C218.188 33.088 218.316 32.224 218.572 31.232C218.828 30.208 219.212 29.072 219.724 27.824L222.268 21.776L215.404 28.688C214.604 29.488 213.948 30.16 213.436 30.704C212.924 31.248 212.508 31.696 212.188 32.048C211.58 32.688 211.036 33.312 210.556 33.92C210.108 34.528 209.724 35.056 209.404 35.504C209.18 35.856 208.924 36.032 208.636 36.032C208.092 36.032 207.82 35.808 207.82 35.36C207.82 34.368 208.716 32.08 210.508 28.496C212.3 24.912 213.196 22.768 213.196 22.064C213.196 21.744 212.844 21.584 212.14 21.584C209.292 21.584 204.22 26.24 196.924 35.552C196.316 36.416 195.308 37.712 193.9 39.44C193.804 39.568 193.644 39.632 193.42 39.632ZM232.694 38.48C230.838 38.48 229.91 37.6 229.91 35.84C229.91 34.688 230.182 33.456 230.726 32.144C231.302 30.8 232.07 29.504 233.03 28.256C233.99 26.976 235.062 25.824 236.246 24.8C237.43 23.744 238.646 22.912 239.894 22.304C241.142 21.664 242.342 21.344 243.494 21.344C245.542 21.344 246.566 22.352 246.566 24.368C246.566 25.68 246.246 26.336 245.606 26.336C245.03 26.336 244.742 26.064 244.742 25.52C244.742 25.296 244.79 25.072 244.886 24.848C245.014 24.592 245.078 24.32 245.078 24.032C245.078 23.136 244.47 22.688 243.254 22.688C241.302 22.688 238.854 24.176 235.91 27.152C235.206 27.888 234.518 28.752 233.846 29.744C233.174 30.736 232.614 31.744 232.166 32.768C231.75 33.76 231.542 34.704 231.542 35.6C231.542 36.464 232.022 36.896 232.982 36.896C233.814 36.896 234.694 36.64 235.622 36.128C236.582 35.616 237.414 35.088 238.118 34.544C239.526 33.488 240.966 32.048 242.438 30.224C242.662 29.968 242.95 29.632 243.302 29.216C243.654 28.8 244.054 28.336 244.502 27.824C244.662 27.664 244.854 27.584 245.078 27.584C245.59 27.584 245.846 27.84 245.846 28.352L244.022 31.088C242.806 32.88 242.198 34.352 242.198 35.504C242.198 36.336 242.598 36.752 243.398 36.752C244.07 36.752 244.806 36.576 245.606 36.224C246.406 35.872 247.062 35.52 247.574 35.168C248.598 34.496 249.67 33.664 250.79 32.672C251.91 31.648 252.982 30.624 254.006 29.6C254.134 29.472 254.326 29.408 254.582 29.408C255.062 29.408 255.302 29.6 255.302 29.984C255.302 30.336 255.078 30.736 254.63 31.184C253.35 32.464 252.198 33.568 251.174 34.496C250.15 35.392 249.174 36.128 248.246 36.704C247.638 37.056 246.886 37.424 245.99 37.808C245.094 38.192 244.07 38.384 242.918 38.384C241.35 38.384 240.566 37.552 240.566 35.888C240.566 35.248 240.646 34.72 240.806 34.304C237.894 37.088 235.19 38.48 232.694 38.48Z" fill="#15031B"/>
</svg>
