<svg width="184" height="60" viewBox="0 0 184 60" fill="none" xmlns="http://www.w3.org/2000/svg">
<path d="M30.88 31.64C31.0933 31.56 31.2933 31.5733 31.48 31.68C31.6933 31.76 31.8267 31.9067 31.88 32.12C31.96 32.3067 31.96 32.4933 31.88 32.68C29.2133 38.3867 26.56 43.24 23.92 47.24C21.28 51.24 18.7333 54.2667 16.28 56.32C13.8533 58.3733 11.6 59.4 9.52 59.4C8.90667 59.4 8.30667 59.3067 7.72 59.12C5.82667 58.5333 4.29333 57.04 3.12 54.64C1.97333 52.2667 1.29333 49.2533 1.08 45.6C0.866667 41.9733 1.12 37.84 1.84 33.2C2.61333 28.3467 3.93333 23.3333 5.8 18.16C7.98667 12.08 10.36 7.50667 12.92 4.44C15 1.96 16.7867 1.08 18.28 1.8C19.32 2.30667 20.0133 3.52 20.36 5.44C20.7333 7.33333 20.8 9.72 20.56 12.6C20.32 15.48 19.96 18.3733 19.48 21.28C19 24.16 18.3867 27.28 17.64 30.64C17.5867 30.8267 17.4667 30.9867 17.28 31.12C17.0933 31.2267 16.8933 31.2533 16.68 31.2C16.4933 31.1467 16.3333 31.04 16.2 30.88C16.0933 30.6933 16.0667 30.4933 16.12 30.28C16.92 26.7067 17.56 23.44 18.04 20.48C18.52 17.4933 18.8267 15 18.96 13C19.12 11 19.16 9.28 19.08 7.84C19 6.4 18.8267 5.32 18.56 4.6C18.32 3.85333 18 3.38667 17.6 3.2C17.2267 3.01333 16.7333 3.12 16.12 3.52C15.5067 3.92 14.84 4.54666 14.12 5.4C11.7467 8.25333 9.56 12.4133 7.56 17.88C5.56 23.32 4.16 28.5067 3.36 33.44C2.29333 40 2.25333 45.56 3.24 50.12C3.69333 52.2 4.34667 53.88 5.2 55.16C6.05333 56.4667 7.05333 57.2933 8.2 57.64C10.7333 58.44 13.7867 56.9733 17.36 53.24C21.5733 48.84 25.9467 41.7733 30.48 32.04C30.56 31.8533 30.6933 31.72 30.88 31.64ZM46.0984 32.08C46.3118 32 46.5118 32.0133 46.6984 32.12C46.8851 32.2 47.0051 32.3467 47.0584 32.56C47.1384 32.7467 47.1384 32.9333 47.0584 33.12C44.2051 39.0133 41.6584 41.96 39.4184 41.96C39.2851 41.96 39.1384 41.9467 38.9784 41.92C37.1918 41.5733 36.0851 39.1733 35.6584 34.72C34.3518 36.48 33.1918 37.92 32.1784 39.04C31.2718 40 30.4984 40.3333 29.8584 40.04C29.2184 39.8 28.9118 39.1067 28.9384 37.96C28.9384 37 29.1518 35.8533 29.5784 34.52C30.0051 33.1867 30.6318 31.8933 31.4584 30.64C32.2851 29.3867 33.1784 28.6 34.1384 28.28C35.5518 27.7733 36.8584 28.24 38.0584 29.68C38.1918 29.84 38.2451 30.0267 38.2184 30.24C38.2184 30.4533 38.1384 30.6267 37.9784 30.76C37.8184 30.8933 37.6318 30.96 37.4184 30.96C37.2051 30.9333 37.0318 30.84 36.8984 30.68C35.9651 29.56 35.0184 29.3467 34.0584 30.04C32.9651 30.8133 32.0451 32.2133 31.2984 34.24C30.5784 36.24 30.2984 37.6667 30.4584 38.52C30.6184 38.3867 30.8051 38.2133 31.0184 38C32.0851 36.8533 33.3918 35.2133 34.9384 33.08C35.2851 32.6 35.5251 32.2667 35.6584 32.08C35.8718 31.8133 36.1518 31.7333 36.4984 31.84C36.8451 31.92 37.0318 32.1467 37.0584 32.52C37.1118 33.8267 37.2184 34.9867 37.3784 36C37.5384 37.0133 37.6984 37.7867 37.8584 38.32C38.0184 38.8267 38.2051 39.2533 38.4184 39.6C38.6318 39.9467 38.7918 40.1733 38.8984 40.28C39.0318 40.36 39.1651 40.4 39.2984 40.4C39.6718 40.48 40.1384 40.3067 40.6984 39.88C41.2851 39.4267 42.0184 38.5733 42.8984 37.32C43.8051 36.04 44.7251 34.4267 45.6584 32.48C45.7651 32.2667 45.9118 32.1333 46.0984 32.08ZM66.8212 31.88C67.0346 31.8533 67.2213 31.9067 67.3812 32.04C67.5413 32.1733 67.6213 32.3467 67.6213 32.56C67.6479 32.7733 67.5946 32.96 67.4613 33.12C64.0746 37.0933 61.3946 38.7067 59.4213 37.96C58.0079 37.4267 57.2479 35.7333 57.1413 32.88C56.7679 33.5733 56.1813 34.7333 55.3813 36.36C54.9279 37.3467 54.6213 37.9733 54.4613 38.24C53.7679 39.5733 53.0213 40.1333 52.2213 39.92C51.1279 39.6533 50.5946 38.12 50.6213 35.32C50.6213 34.7867 50.6346 34.16 50.6612 33.44C48.9013 35.9467 47.1013 38.96 45.2613 42.48C44.9413 43.0933 44.5946 43.4 44.2212 43.4C44.0879 43.4 43.9679 43.36 43.8612 43.28C43.7279 43.2267 43.6346 43.1733 43.5812 43.12C43.5012 43.0667 43.4346 42.92 43.3812 42.68C43.3012 42.44 43.2879 42.1333 43.3412 41.76C43.3679 41.3867 43.4479 40.84 43.5812 40.12C43.7146 39.4 43.9146 38.5333 44.1812 37.52C45.0346 34.1067 46.0613 31.0533 47.2613 28.36C47.3413 28.1467 47.4746 28 47.6613 27.92C47.8746 27.84 48.0746 27.8533 48.2613 27.96C48.4746 28.04 48.6079 28.1867 48.6613 28.4C48.7413 28.5867 48.7413 28.7733 48.6613 28.96C47.3279 31.9733 46.2346 35.32 45.3813 39C46.9813 36.1733 48.6346 33.5733 50.3413 31.2C50.7146 30.6667 51.1279 30.48 51.5813 30.64C51.9013 30.7467 52.0879 30.9733 52.1413 31.32C52.1946 31.64 52.2079 32.2933 52.1813 33.28C52.1546 34.1067 52.1413 34.7867 52.1413 35.32C52.1413 36.7333 52.2879 37.7333 52.5813 38.32C52.7413 38.16 52.9279 37.8933 53.1413 37.52C53.2746 37.2533 53.5679 36.6533 54.0213 35.72C55.1146 33.4267 55.9013 31.9333 56.3813 31.24C56.8613 30.52 57.3546 30.2133 57.8613 30.32C58.4213 30.4533 58.7013 31.04 58.7013 32.08C58.6746 34.6933 59.1013 36.1733 59.9813 36.52C60.5146 36.7067 61.3279 36.4667 62.4213 35.8C63.5146 35.1067 64.8079 33.88 66.3013 32.12C66.4346 31.96 66.6079 31.88 66.8212 31.88ZM76.8006 31.8C77.014 31.7467 77.214 31.7733 77.4006 31.88C77.5873 31.9867 77.694 32.1467 77.7206 32.36C77.774 32.5733 77.7473 32.7733 77.6406 32.96C76.894 34.1333 75.9873 35.36 74.9206 36.64C73.8806 37.8933 72.694 39.0267 71.3606 40.04C70.054 41.0533 68.9473 41.56 68.0406 41.56C67.7206 41.56 67.4406 41.5067 67.2006 41.4C65.414 40.6267 65.2273 37.4933 66.6406 32C66.694 31.7867 66.814 31.6267 67.0006 31.52C67.1873 31.4133 67.374 31.3867 67.5606 31.44C67.774 31.4933 67.934 31.6133 68.0406 31.8C68.1473 31.9867 68.174 32.1733 68.1206 32.36C67.8006 33.64 67.5606 34.7733 67.4006 35.76C67.2673 36.72 67.2006 37.4533 67.2006 37.96C67.2273 38.4667 67.2806 38.8933 67.3606 39.24C67.4673 39.56 67.5473 39.76 67.6006 39.84C67.6806 39.8933 67.7473 39.9333 67.8006 39.96C68.494 40.2533 69.7473 39.56 71.5606 37.88C73.4006 36.2 74.9873 34.28 76.3206 32.12C76.454 31.96 76.614 31.8533 76.8006 31.8ZM67.9606 28.68C67.1873 28.6267 66.9473 28.3067 67.2406 27.72C67.5073 27.24 67.854 26.92 68.2806 26.76C68.9473 26.5467 69.3473 26.72 69.4806 27.28C69.614 27.8133 69.414 28.2133 68.8806 28.48C68.614 28.6133 68.3073 28.68 67.9606 28.68ZM87.3234 3.52C87.8834 4.34667 87.6034 6.30667 86.4834 9.4C85.3901 12.4667 83.6034 15.9733 81.1234 19.92C81.0968 19.9467 81.0701 19.9733 81.0434 20C79.3634 26.72 77.7501 33.72 76.2034 41C74.6834 48.3067 73.7101 53.5067 73.2834 56.6C73.3101 56.6 73.3368 56.6 73.3634 56.6C73.5768 56.68 73.7368 56.8133 73.8434 57C73.9234 57.1867 73.9234 57.3867 73.8434 57.6C73.6834 58.0533 73.5634 58.3867 73.4834 58.6C73.3768 58.84 73.2301 59.0667 73.0434 59.28C72.8568 59.4933 72.6568 59.6 72.4434 59.6C72.3634 59.6 72.2701 59.5867 72.1634 59.56C71.7901 59.4267 71.5901 59.0533 71.5634 58.44C71.5368 57.8533 71.7234 56.3867 72.1234 54.04C72.6034 51.16 73.3234 47.4 74.2834 42.76C76.4968 32.2 78.6968 22.7867 80.8834 14.52C81.0701 13.8267 81.2701 13.1067 81.4834 12.36C81.6968 11.5867 82.0034 10.6267 82.4034 9.48C82.8034 8.33333 83.1901 7.33333 83.5634 6.48C83.9634 5.6 84.4034 4.82667 84.8834 4.16C85.3634 3.46667 85.8168 3.09333 86.2434 3.04C86.6968 2.96 87.0568 3.12 87.3234 3.52ZM82.4434 14.64C84.5768 10.6133 85.7768 7.45333 86.0434 5.16C84.8701 6.92 83.6701 10.08 82.4434 14.64ZM97.8172 32.08C98.0305 32 98.2305 32.0133 98.4172 32.12C98.6039 32.2 98.7239 32.3467 98.7772 32.56C98.8572 32.7467 98.8572 32.9333 98.7772 33.12C95.9239 39.0133 93.3772 41.96 91.1372 41.96C91.0039 41.96 90.8572 41.9467 90.6972 41.92C88.9105 41.5733 87.8039 39.1733 87.3772 34.72C86.0705 36.48 84.9105 37.92 83.8972 39.04C82.9905 40 82.2172 40.3333 81.5772 40.04C80.9372 39.8 80.6305 39.1067 80.6572 37.96C80.6572 37 80.8705 35.8533 81.2972 34.52C81.7239 33.1867 82.3505 31.8933 83.1772 30.64C84.0039 29.3867 84.8972 28.6 85.8572 28.28C87.2705 27.7733 88.5772 28.24 89.7772 29.68C89.9105 29.84 89.9639 30.0267 89.9372 30.24C89.9372 30.4533 89.8572 30.6267 89.6972 30.76C89.5372 30.8933 89.3505 30.96 89.1372 30.96C88.9239 30.9333 88.7505 30.84 88.6172 30.68C87.6839 29.56 86.7372 29.3467 85.7772 30.04C84.6839 30.8133 83.7639 32.2133 83.0172 34.24C82.2972 36.24 82.0172 37.6667 82.1772 38.52C82.3372 38.3867 82.5239 38.2133 82.7372 38C83.8039 36.8533 85.1105 35.2133 86.6572 33.08C87.0039 32.6 87.2439 32.2667 87.3772 32.08C87.5905 31.8133 87.8705 31.7333 88.2172 31.84C88.5639 31.92 88.7505 32.1467 88.7772 32.52C88.8305 33.8267 88.9372 34.9867 89.0972 36C89.2572 37.0133 89.4172 37.7867 89.5772 38.32C89.7372 38.8267 89.9239 39.2533 90.1372 39.6C90.3505 39.9467 90.5105 40.1733 90.6172 40.28C90.7505 40.36 90.8839 40.4 91.0172 40.4C91.3905 40.48 91.8572 40.3067 92.4172 39.88C93.0039 39.4267 93.7372 38.5733 94.6172 37.32C95.5239 36.04 96.4439 34.4267 97.3772 32.48C97.4839 32.2667 97.6305 32.1333 97.8172 32.08ZM140.366 47.24C140.579 47.24 140.752 47.3067 140.886 47.44C141.046 47.6 141.126 47.7867 141.126 48C141.126 48.1333 141.086 48.2533 141.006 48.36C140.926 48.4933 140.819 48.5867 140.686 48.64C140.579 48.72 140.459 48.76 140.326 48.76C139.366 48.7333 138.272 48.88 137.046 49.2C135.846 49.5467 134.472 50.0933 132.926 50.84C131.379 51.5867 130.099 52.2267 129.086 52.76C128.072 53.32 126.672 54.0933 124.886 55.08C122.859 56.2267 121.339 57.0667 120.326 57.6C119.312 58.16 118.166 58.6933 116.886 59.2C115.606 59.7067 114.552 59.96 113.726 59.96C113.006 59.96 112.406 59.7867 111.926 59.44C110.699 58.5067 110.446 56.4667 111.166 53.32C113.166 44.5467 115.939 33.96 119.486 21.56C120.339 18.5733 121.112 15.92 121.806 13.6C122.526 11.28 123.126 9.37333 123.606 7.88C124.112 6.36 124.579 5.09333 125.006 4.08C125.432 3.04 125.752 2.26666 125.966 1.76C126.206 1.25333 126.446 0.879999 126.686 0.639997C126.926 0.399999 127.099 0.28 127.206 0.28C127.312 0.253332 127.459 0.253332 127.646 0.28C128.126 0.333332 128.419 0.706665 128.526 1.4C128.632 2.09333 128.619 3.16 128.486 4.6C128.459 4.81333 128.366 4.98666 128.206 5.12C128.046 5.25333 127.859 5.32 127.646 5.32C127.432 5.29333 127.246 5.2 127.086 5.04C126.952 4.88 126.899 4.69333 126.926 4.48C126.979 4 127.019 3.56 127.046 3.16C125.659 6.33333 123.526 13 120.646 23.16C117.232 35.1867 114.579 45.36 112.686 53.68C112.099 56.16 112.152 57.6667 112.846 58.2C113.032 58.3333 113.272 58.4133 113.566 58.44C113.859 58.4667 114.206 58.4267 114.606 58.32C115.032 58.2133 115.446 58.0933 115.846 57.96C116.246 57.8533 116.752 57.6533 117.366 57.36C117.979 57.0667 118.499 56.8133 118.926 56.6C119.352 56.3867 119.926 56.08 120.646 55.68C121.392 55.28 121.966 54.96 122.366 54.72C122.766 54.5067 123.352 54.1867 124.126 53.76C125.619 52.9067 126.752 52.2667 127.526 51.84C128.326 51.4133 129.419 50.84 130.806 50.12C132.219 49.4267 133.392 48.8933 134.326 48.52C135.259 48.1733 136.272 47.8667 137.366 47.6C138.486 47.3333 139.486 47.2133 140.366 47.24ZM147.035 31.8C147.248 31.7467 147.448 31.7733 147.635 31.88C147.822 31.9867 147.928 32.1467 147.955 32.36C148.008 32.5733 147.982 32.7733 147.875 32.96C147.128 34.1333 146.222 35.36 145.155 36.64C144.115 37.8933 142.928 39.0267 141.595 40.04C140.288 41.0533 139.182 41.56 138.275 41.56C137.955 41.56 137.675 41.5067 137.435 41.4C135.648 40.6267 135.462 37.4933 136.875 32C136.928 31.7867 137.048 31.6267 137.235 31.52C137.422 31.4133 137.608 31.3867 137.795 31.44C138.008 31.4933 138.168 31.6133 138.275 31.8C138.382 31.9867 138.408 32.1733 138.355 32.36C138.035 33.64 137.795 34.7733 137.635 35.76C137.502 36.72 137.435 37.4533 137.435 37.96C137.462 38.4667 137.515 38.8933 137.595 39.24C137.702 39.56 137.782 39.76 137.835 39.84C137.915 39.8933 137.982 39.9333 138.035 39.96C138.728 40.2533 139.982 39.56 141.795 37.88C143.635 36.2 145.222 34.28 146.555 32.12C146.688 31.96 146.848 31.8533 147.035 31.8ZM138.195 28.68C137.422 28.6267 137.182 28.3067 137.475 27.72C137.742 27.24 138.088 26.92 138.515 26.76C139.182 26.5467 139.582 26.72 139.715 27.28C139.848 27.8133 139.648 28.2133 139.115 28.48C138.848 28.6133 138.542 28.68 138.195 28.68ZM167.798 31.88C168.011 31.8533 168.198 31.9067 168.358 32.04C168.518 32.1733 168.598 32.3467 168.598 32.56C168.624 32.7733 168.571 32.96 168.438 33.12C165.051 37.0933 162.371 38.7067 160.398 37.96C158.984 37.4267 158.224 35.7333 158.118 32.88C157.744 33.5733 157.158 34.7333 156.358 36.36C155.904 37.3467 155.598 37.9733 155.438 38.24C154.744 39.5733 153.998 40.1333 153.198 39.92C152.104 39.6533 151.571 38.12 151.598 35.32C151.598 34.7867 151.611 34.16 151.638 33.44C149.878 35.9467 148.078 38.96 146.238 42.48C145.918 43.0933 145.571 43.4 145.198 43.4C145.064 43.4 144.944 43.36 144.838 43.28C144.704 43.2267 144.611 43.1733 144.558 43.12C144.478 43.0667 144.411 42.92 144.358 42.68C144.278 42.44 144.264 42.1333 144.318 41.76C144.344 41.3867 144.424 40.84 144.558 40.12C144.691 39.4 144.891 38.5333 145.158 37.52C146.011 34.1067 147.038 31.0533 148.238 28.36C148.318 28.1467 148.451 28 148.638 27.92C148.851 27.84 149.051 27.8533 149.238 27.96C149.451 28.04 149.584 28.1867 149.638 28.4C149.718 28.5867 149.718 28.7733 149.638 28.96C148.304 31.9733 147.211 35.32 146.358 39C147.958 36.1733 149.611 33.5733 151.318 31.2C151.691 30.6667 152.104 30.48 152.558 30.64C152.878 30.7467 153.064 30.9733 153.118 31.32C153.171 31.64 153.184 32.2933 153.158 33.28C153.131 34.1067 153.118 34.7867 153.118 35.32C153.118 36.7333 153.264 37.7333 153.558 38.32C153.718 38.16 153.904 37.8933 154.118 37.52C154.251 37.2533 154.544 36.6533 154.998 35.72C156.091 33.4267 156.878 31.9333 157.358 31.24C157.838 30.52 158.331 30.2133 158.838 30.32C159.398 30.4533 159.678 31.04 159.678 32.08C159.651 34.6933 160.078 36.1733 160.958 36.52C161.491 36.7067 162.304 36.4667 163.398 35.8C164.491 35.1067 165.784 33.88 167.278 32.12C167.411 31.96 167.584 31.88 167.798 31.88ZM182.817 32.08C183.031 32 183.231 32.0133 183.417 32.12C183.604 32.2 183.724 32.3467 183.777 32.56C183.857 32.7467 183.857 32.9333 183.777 33.12C180.924 39.0133 178.377 41.96 176.137 41.96C176.004 41.96 175.857 41.9467 175.697 41.92C173.911 41.5733 172.804 39.1733 172.377 34.72C171.071 36.48 169.911 37.92 168.897 39.04C167.991 40 167.217 40.3333 166.577 40.04C165.937 39.8 165.631 39.1067 165.657 37.96C165.657 37 165.871 35.8533 166.297 34.52C166.724 33.1867 167.351 31.8933 168.177 30.64C169.004 29.3867 169.897 28.6 170.857 28.28C172.271 27.7733 173.577 28.24 174.777 29.68C174.911 29.84 174.964 30.0267 174.937 30.24C174.937 30.4533 174.857 30.6267 174.697 30.76C174.537 30.8933 174.351 30.96 174.137 30.96C173.924 30.9333 173.751 30.84 173.617 30.68C172.684 29.56 171.737 29.3467 170.777 30.04C169.684 30.8133 168.764 32.2133 168.017 34.24C167.297 36.24 167.017 37.6667 167.177 38.52C167.337 38.3867 167.524 38.2133 167.737 38C168.804 36.8533 170.111 35.2133 171.657 33.08C172.004 32.6 172.244 32.2667 172.377 32.08C172.591 31.8133 172.871 31.7333 173.217 31.84C173.564 31.92 173.751 32.1467 173.777 32.52C173.831 33.8267 173.937 34.9867 174.097 36C174.257 37.0133 174.417 37.7867 174.577 38.32C174.737 38.8267 174.924 39.2533 175.137 39.6C175.351 39.9467 175.511 40.1733 175.617 40.28C175.751 40.36 175.884 40.4 176.017 40.4C176.391 40.48 176.857 40.3067 177.417 39.88C178.004 39.4267 178.737 38.5733 179.617 37.32C180.524 36.04 181.444 34.4267 182.377 32.48C182.484 32.2667 182.631 32.1333 182.817 32.08Z" fill="#15031B"/>
</svg>
